<?xml version="1.0" encoding="UTF-8"?>
<svg id="Layer_1" data-name="Layer 1" xmlns="http://www.w3.org/2000/svg" viewBox="0 0 500 500" fill="#ffffff">
  <g>
    <path d="M279.73,18.92c18.43,18.23,20.49,46.89,4.98,66.37-19.84,24.92-56.92,39.04-62.41,72.53-.33,1.99-3.06,2.29-3.82.43-8.8-21.37-13.71-47.75,9.63-67,38.88-32.08,40.45-54.46,33.03-76.65-1.01-3.03-2.37-5.95-3.78-8.83-.9-1.83,1.18-3.68,2.89-2.56,6.88,4.53,15.19,11.47,19.49,15.72Z"/>
    <path d="M283.6,160.37c8.16-7.51,16.85-14.05,23.32-24.03,9.68-14.94,5.62-35.26.49-46.47-.71-1.55-2.9-1.59-3.63-.04-11.67,24.75-30.85,31.22-44.91,47.19-14.86,16.88-20.6,30.87-7.96,72.83.64,2.11,3.7,1.79,3.91-.4,1.88-19.94,13.32-34.83,28.78-49.07Z"/>
  </g>
  <path d="M402.66,290.67h96.03c1.1,0,2-.9,2-2v-30c0-1.1-.9-2-2-2h-113.36c-.64,0-1.24.31-1.62.82l-132.73,182.73c-.8,1.1-2.43,1.1-3.23.01l-134.59-182.76c-.38-.51-.97-.81-1.61-.81H1.29c-1.1,0-2,.9-2,2v30c0,1.1.9,2,2,2h93.09c.64,0,1.23.3,1.61.81l151.96,206.35c.8,1.09,2.43,1.08,3.23-.01l149.87-206.33c.38-.52.98-.82,1.62-.82Z"/>
  <path d="M359.55,205.37l-23.96-18.05c-.88-.66-2.14-.49-2.8.39l-81.74,108.51c-.8,1.06-2.39,1.06-3.19,0l-82-108.53c-.67-.88-1.92-1.06-2.8-.39l-23.94,18.08c-.88.67-1.06,1.92-.39,2.8l109.16,144.49c.8,1.06,2.39,1.06,3.19,0l108.86-144.51c.66-.88.49-2.14-.39-2.8Z"/>
</svg>