<?xml version="1.0" encoding="UTF-8"?>
<svg id="Layer_1" data-name="Layer 1" xmlns="http://www.w3.org/2000/svg" viewBox="0 0 500 500">
  <path d="M496.11,54.15v-30c0-1.11-.91-2.02-2.02-2.01-60.03.52-116.39,24.14-158.89,66.64-31.51,31.51-52.64,70.64-61.67,113.24-.5,2.35-3.95,2-3.95-.41V2.83c0-1.1-.9-2-2-2h-30c-1.1,0-2,.9-2,2v222.36c-5.48-51.52-28.19-99.25-65.34-136.4C127.73,46.28,71.38,22.66,11.34,22.14c-1.11,0-2.02.9-2.02,2.01v30c0,1.1.89,1.98,1.98,1.99,99.36,1,181.01,77.25,190.62,174.36.12,1.18-.82,2.2-2,2.2H11.95c-1.1,0-2,.9-2,2v30c0,1.1.9,2,2,2h190.18c-8.58,98.15-90.72,175.54-190.82,176.55-1.1.01-1.98.89-1.98,1.99v30c0,1.11.91,2.02,2.02,2.01,60.03-.52,116.39-24.14,158.89-66.64,31.2-31.2,52.22-69.87,61.39-111.98.51-2.34,3.95-1.97,3.95.43v197.51c0,1.1.9,2,2,2h30c1.1,0,2-.9,2-2v-198.79c0-2.41,3.45-2.76,3.95-.41,9.03,42.6,30.16,81.73,61.67,113.24,42.5,42.5,98.86,66.12,158.89,66.64,1.11,0,2.02-.9,2.02-2.01v-30c0-1.1-.89-1.98-1.98-1.99-99.36-1-181.01-77.25-190.62-174.36-.12-1.18.82-2.2,2-2.2h188.04c1.1,0,2-.9,2-2v-30c0-1.1-.9-2-2-2h-188.04c-1.18,0-2.12-1.02-2-2.2,9.61-97.11,91.26-173.35,190.62-174.36,1.1-.01,1.98-.89,1.98-1.99Z"/>
</svg>