<?xml version="1.0" encoding="UTF-8"?>
<svg id="Layer_2" data-name="Layer 2" xmlns="http://www.w3.org/2000/svg" viewBox="0 0 469.28 147.05">
  <g id="Layer_1-2" data-name="Layer 1">
    <path d="M430.45,47.8c0-13.3-11.15-26.96-26.96-26.96-22.29,0-33.08,24.09-30.92,41.35l-14.02-13.3c10.43-17.26,23.73-30.2,47.46-30.2,26.25,0,38.83,13.3,38.83,39.19v62.2c0,12.94,8.27,21.21,16.54,21.21,2.52,0,5.39-.72,7.91-2.88-4.67,5.03-10.43,8.27-17.26,8.27-14.38,0-20.85-11.5-21.21-24.45-7.91,16.54-24.45,24.09-40.27,24.09-19.77,0-38.83-11.86-38.83-32.36,0-46.74,78.74-34.87,78.74-66.15ZM368.61,112.51c0,21.57,12.22,30.56,25.89,30.56,16.54,0,35.23-13.3,36.31-33.08l-.36-51.05c-16.18,20.49-61.48,14.02-61.84,53.57Z" style="fill: #fff;"/>
    <path d="M0,19.16h38.47c-4.67,1.8-7.19,6.47-7.19,11.5,0,1.8.36,3.95,1.08,5.75l37.36,83.01,35.19-75.7c7.41-16.14,2.72-22.9-5.11-25.42l39.48.06c-17.27,4.95-24.14,14.91-32.2,31.54-6.39,13.19-32.29,75.13-42.37,95.44L17.98,39.66C14.02,30.31,10.07,23.12,0,19.16Z" style="fill: #fff;"/>
    <path d="M319.85,23.27V0c-5.73,4.84-15.11,13.39-15.11,13.39l.73,96.27c0,19.77,8.63,37.39,30.92,37.39,5.26,0,9.9-1.12,14.08-3.07,2.12-.99,4.53-2.61,6.43-3.99-3.08-2.68-5.45-4.98-7.23-8.66-1.32,1.27-3.06,2.47-4.84,3.45-12.41,6.83-24.97-6.43-24.97-20.09V29.79h47c1.47-1.66,6.88-6.15,10.03-6.52h-57.02Z" style="fill: #fff;"/>
    <path d="M232.16,105.73l-2.92-2.43c-13.32,25.32-40.14,33.58-57.39,33.58s-31.5-10.34-41.21-26.87c19.57-25.88,69.31-23.5,81.19-38.09-2.98-3.58-5.03-7.47-6.23-11.79-.78-2.82-1.18-5.83-1.18-8.94s.3-5.89.91-8.66c.31-1.43.71-2.81,1.18-4.17-9.13-13.06-25.02-20.03-41.36-20.03-28.04,0-57.52,20.13-57.52,64.36s26.25,62.71,55.73,62.71c11.74,0,24.99-3.28,37.42-10.09.89-.49,19.87-11.21,31.39-29.57ZM122.01,76.2c0-39.55,21.21-55.37,41.71-55.37,18.34,0,35.59,12.94,35.59,32,0,38.11-47.46,25.89-70.11,54.65-4.67-8.99-7.19-19.41-7.19-31.28Z" style="fill: #fff;"/>
    <path d="M226.54,57.13c-4.7-4.36-7.6-9.72-7.6-16.74,0-1.15.11-2.26.31-3.32,2.46-12.84,19.01-18.97,30.97-18.97,18.34,0,41.86,13.05,47.61,31.02v-23.73c-.1-.04-.2-.08-.3-.13-2.67-1.14-6.51-2.33-10.87-3.45-10.69-2.74-28.54-5.88-35.36-5.88-14.44,0-28.38,5.5-35.81,16.39-2.2,3.22-3.82,6.91-4.72,11.06-.53,2.44-.81,5.03-.81,7.79s.36,5.43,1.03,7.84c1.62,5.85,5.06,10.56,9.64,14.5,21.89,18.84,69.87,20.19,69.87,44.89,0,19.06-23.01,21.47-37.39,21.47-12.74,0-23.79-4.5-32.15-12.88-4.08,3.66-8.37,6.77-12.79,9.33v.41c14.02,4.31,32.36,7.91,47.1,7.91,22.29,0,44.58-9.35,44.58-35.23,0-33.23-53.16-33.61-73.29-52.29Z" style="fill: #fff;"/>
    <line x1="99.8" y1="70.57" x2="99.8" y2="70.57" style="fill: #fff;"/>
  </g>
</svg>