<?xml version="1.0" encoding="UTF-8"?>
<svg id="Layer_1" data-name="Layer 1" xmlns="http://www.w3.org/2000/svg" viewBox="0 0 500 500" fill="#ffffff">
  <path d="M379.54,109.66h-79.02c-1.78,0-2.67-2.16-1.41-3.42l55.77-55.57c.79-.78.78-2.06,0-2.84l-21.29-21.12c-.78-.77-2.03-.77-2.81,0l-56.08,55.42c-1.26,1.25-3.41.35-3.41-1.42V2.26c0-1.1-.9-2-2-2h-30.07c-1.1,0-2,.9-2,2v78.44c0,1.78-2.15,2.67-3.41,1.42l-56.08-55.42c-.78-.77-2.04-.77-2.81,0l-21.29,21.12c-.79.78-.79,2.05,0,2.84l55.78,55.57c1.26,1.26.37,3.42-1.41,3.42h-79.02c-1.1,0-2,.9-2,2v29.84c0,1.1.9,2,2,2h79.02c1.78,0,2.67,2.16,1.41,3.42l-55.78,55.57c-.79.78-.78,2.06,0,2.84l21.29,21.12c.78.77,2.03.77,2.81,0l56.08-55.42c1.26-1.25,3.41-.35,3.41,1.42v183.84c0,1.1-.9,2-2,2h-106.25c-1.1,0-2,.9-2,2v29.84c0,1.1.9,2,2,2h106.25c1.1,0,2,.89,2,2v105.4c0,1.1.89,2,2,2h30.07c1.1,0,2-.9,2-2v-105.4c0-1.1.89-2,2-2h106.25c1.1,0,2-.89,2-2v-29.84c0-1.1-.9-2-2-2h-106.25c-1.1,0-2-.9-2-2v-183.84c0-1.78,2.14-2.67,3.41-1.42l56.08,55.42c.78.77,2.04.77,2.81,0l21.29-21.12c.79-.78.79-2.05,0-2.84l-55.77-55.57c-1.26-1.26-.37-3.42,1.41-3.42h79.02c1.1,0,2-.9,2-2v-29.84c0-1.1-.9-2-2-2Z"/>
</svg>