<?xml version="1.0" encoding="UTF-8"?>
<svg id="Layer_1" data-name="Layer 1" xmlns="http://www.w3.org/2000/svg" viewBox="0 0 500 500" fill="#ffffff">
  <path d="M359.43,149.5l-21.76,21.76c-.78.78-2.05.78-2.83,0l-77.21-77.23c-.78-.78-.78-2.05,0-2.83l21.76-21.76c.78-.78,2.05-.78,2.83,0l77.21,77.23c.78.78.78,2.05,0,2.83ZM288.96,140.76l-37.04,36.8c-.78.78-2.04.77-2.82,0l-83.27-83.22c-2.59-2.59-4.89-5.48-6.63-8.71-15.75-29.09,16.25-62.29,46.78-44.2,2.21,1.31,9.55,7.31,12.73,10.06.79.68,1.98.64,2.72-.1l20.13-20.11c.73-.73.79-1.9.13-2.69-55.38-66.67-150.15,3.51-113.11,72.89,3.69,6.91,8.52,13.15,14.06,18.69l106.45,106.42c.78.78,2.05.78,2.83,0l61.88-61.9c.79-.79.78-2.08-.03-2.86l-22.02-21.08c-.78-.75-2.02-.74-2.79.03ZM305.88,37.11c28.12-5.19,49.37,23.6,36.02,48.87-2.98,5.64-6.51,9.02-11.17,13.8-.76.78-.76,2.03,0,2.81l21.13,21.34c.74.75,1.96.8,2.75.1,61-54.31,3.66-140.94-62.8-118.31-10.78,3.67-20.47,9.99-28.53,18.05l-76.09,76.15c-.79.79-.78,2.09.04,2.86l21.83,20.78c.76.72,1.95.74,2.73.03,2.44-2.22,5.21-4.75,6.22-5.71,18.62-17.79,36.3-36.88,54.85-54.86,9.76-9.47,18.44-23.22,33.03-25.91ZM428.74,277.91l-21.76-21.76c-.78-.78-2.05-.78-2.83,0l-77.23,77.21c-.78.78-.78,2.05,0,2.83l21.76,21.76c.78.78,2.05.78,2.83,0l77.23-77.21c.78-.78.78-2.05,0-2.83ZM357.42,287.47l-36.8-37.04c-.78-.78-.77-2.04,0-2.82l83.22-83.27c2.59-2.59,5.48-4.89,8.71-6.63,29.09-15.75,62.29,16.25,44.2,46.78-1.31,2.21-7.31,9.55-10.06,12.73-.68.79-.64,1.98.1,2.72l20.11,20.13c.73.73,1.9.79,2.69.13,66.67-55.38-3.51-150.15-72.89-113.11-6.91,3.69-13.15,8.52-18.69,14.06l-106.42,106.45c-.78.78-.78,2.05,0,2.83l61.9,61.88c.79.79,2.08.78,2.86-.03l21.08-22.02c.75-.78.74-2.02-.03-2.79ZM461.07,304.39c5.19,28.12-23.6,49.37-48.87,36.02-5.64-2.98-9.02-6.51-13.8-11.17-.78-.76-2.03-.76-2.81,0l-21.34,21.13c-.75.74-.8,1.96-.1,2.75,54.31,61,140.94,3.66,118.31-62.8-3.67-10.78-9.99-20.47-18.05-28.53l-76.15-76.09c-.79-.79-2.09-.78-2.86.04l-20.78,21.83c-.72.76-.74,1.95-.03,2.73,2.22,2.44,4.75,5.21,5.71,6.22,17.79,18.62,36.88,36.3,54.86,54.85,9.47,9.76,23.22,18.44,25.91,33.03ZM219.68,430.01l21.76-21.76c.78-.78.78-2.05,0-2.83l-77.21-77.23c-.78-.78-2.05-.78-2.83,0l-21.76,21.76c-.78.78-.78,2.05,0,2.83l77.21,77.23c.78.78,2.05.78,2.83,0ZM210.12,358.69l37.04-36.8c.78-.78,2.04-.77,2.82,0l83.27,83.22c2.59,2.59,4.89,5.48,6.63,8.71,15.75,29.09-16.25,62.29-46.78,44.2-2.21-1.31-9.55-7.31-12.73-10.06-.79-.68-1.98-.64-2.72.1l-20.13,20.11c-.73.73-.79,1.9-.13,2.69,55.38,66.67,150.15-3.51,113.11-72.89-3.69-6.91-8.52-13.15-14.06-18.69l-106.45-106.42c-.78-.78-2.05-.78-2.83,0l-61.88,61.9c-.79.79-.78,2.08.03,2.86l22.02,21.08c.78.75,2.02.74,2.79-.03ZM193.2,462.34c-28.12,5.19-49.37-23.6-36.02-48.87,2.98-5.64,6.51-9.02,11.17-13.8.76-.78.76-2.03,0-2.81l-21.13-21.34c-.74-.75-1.96-.8-2.75-.1-61,54.31-3.66,140.94,62.8,118.31,10.78-3.67,20.47-9.99,28.53-18.05l76.09-76.15c.79-.79.78-2.09-.04-2.86l-21.83-20.78c-.76-.72-1.95-.74-2.73-.03-2.44,2.22-5.21,4.75-6.22,5.71-18.62,17.79-36.3,36.88-54.85,54.86-9.76,9.47-18.44,23.22-33.03,25.91ZM68.68,222.05l21.76,21.76c.78.78,2.05.78,2.83,0l77.23-77.21c.78-.78.78-2.05,0-2.83l-21.76-21.76c-.78-.78-2.05-.78-2.83,0l-77.23,77.21c-.78.78-.78,2.05,0,2.83ZM140,212.49l36.8,37.04c.78.78.77,2.04,0,2.82l-83.22,83.27c-2.59,2.59-5.48,4.89-8.71,6.63-29.09,15.75-62.29-16.25-44.2-46.78,1.31-2.21,7.31-9.55,10.06-12.73.68-.79.64-1.98-.1-2.72l-20.11-20.13c-.73-.73-1.9-.79-2.69-.13-66.67,55.38,3.51,150.15,72.89,113.11,6.91-3.69,13.15-8.52,18.69-14.06l106.42-106.45c.78-.78.78-2.05,0-2.83l-61.9-61.88c-.79-.79-2.08-.78-2.86.03l-21.08,22.02c-.75.78-.74,2.02.03,2.79ZM36.35,195.57c-5.19-28.12,23.6-49.37,48.87-36.02,5.64,2.98,9.02,6.51,13.8,11.17.78.76,2.03.76,2.81,0l21.34-21.13c.75-.74.8-1.96.1-2.75-54.31-61-140.94-3.66-118.31,62.8,3.67,10.78,9.99,20.47,18.05,28.53l76.15,76.09c.79.79,2.09.78,2.86-.04l20.78-21.83c.72-.76.74-1.95.03-2.73-2.22-2.44-4.75-5.21-5.71-6.22-17.79-18.62-36.88-36.3-54.86-54.85-9.47-9.76-23.22-18.44-25.91-33.03Z"/>
  <circle cx="442.52" cy="254.48" r="16.85" style="fill: #242424;"/>
</svg>