<?xml version="1.0" encoding="UTF-8"?><svg id="Layer_1" xmlns="http://www.w3.org/2000/svg" viewBox="0 0 1920 1080"><path d="M50.12,610.21c0-152.3,110.76-318.44,243.28-318.44,62.3,0,97.9,36.59,97.9,87.03,0,118.67-180.97,188.89-279.87,160.21-2.97,18.79-4.95,36.59-4.95,53.4,0,107.79,42.53,151.31,104.83,151.31s136.47-59.34,158.23-202.73h1.98c-22.75,192.84-119.66,244.26-187.9,244.26s-133.51-55.38-133.51-175.04ZM336.91,376.82c0-49.45-18.79-72.19-54.39-72.19-82.08,0-150.32,119.66-170.1,227.45,107.79,20.77,224.49-41.53,224.49-155.26ZM849.89,729.87c0-25.71,10.88-63.29,21.76-97.91l54.39-168.12c11.87-37.58,20.77-75.16,20.77-95.93,0-27.69-14.83-38.57-43.51-38.57-51.42,0-99.88,51.42-140.43,137.46-18.79,40.55-47.47,119.66-94.94,310.52h-57.36l88.01-313.49c10.88-36.59,20.77-75.16,20.77-95.93,0-27.69-13.85-38.57-42.52-38.57-52.41,0-102.85,51.42-143.4,137.46-18.79,40.55-47.47,118.67-94.94,310.52h-55.38l112.74-427.22c2.97-11.87.99-13.85-9.89-17.8l-83.07-26.7v-1.98l167.13-11.87-66.26,220.53h1.98c49.45-146.36,124.6-220.53,197.79-220.53,46.48,0,69.22,30.66,69.22,73.18,0,30.66-22.74,94.94-39.56,147.35h1.98c48.46-146.36,120.65-220.53,194.82-220.53,46.48,0,73.18,30.66,73.18,73.18,0,30.66-12.86,74.17-23.73,107.79l-55.38,168.12c-8.9,26.7-18.79,53.4-18.79,76.15,0,16.81,5.93,30.66,25.71,30.66s44.5-15.82,64.28-47.47c30.66-46.48,45.49-117.68,50.44-161.2h1.98c-8.9,163.17-90.98,246.24-150.32,246.24-28.68,0-47.47-19.78-47.47-55.38ZM1052.22,729.87c0-19.78,5.94-50.44,13.85-82.08l76.15-297.67c2.97-11.87,0-13.85-10.88-17.8l-83.07-26.7v-1.98l163.17-11.87-89,348.1c-6.92,27.69-13.85,57.36-13.85,77.14,0,16.81,5.94,30.66,25.71,30.66s44.5-15.82,64.28-47.47c30.66-46.48,45.49-117.68,50.44-161.2h1.98c-8.9,163.17-90.98,246.24-150.32,246.24-28.68,0-48.46-19.78-48.46-55.38ZM1199.57,118.71c25.71,0,45.49,20.77,45.49,45.49s-20.77,45.49-45.49,45.49-45.49-20.77-45.49-45.49,20.77-45.49,45.49-45.49ZM1257.74,729.87c0-19.78,5.94-50.44,13.85-82.08l124.6-517.21c2.97-12.86,1.98-16.81-8.9-19.78l-87.03-26.7v-1.98l165.15-12.86-137.46,570.61c-6.92,27.69-13.85,57.36-13.85,77.14,0,16.81,5.93,30.66,25.71,30.66s44.5-15.82,64.28-47.47c30.66-46.48,45.49-117.68,50.44-161.2h1.98c-3.96,70.21-21.76,125.59-44.5,166.14-30.66,53.4-72.19,80.1-105.81,80.1-28.68,0-48.46-19.78-48.46-55.38ZM1382.33,1007.76l42.53-127.57h1.98l32.64,78.13c6.92,15.82,14.83,17.8,30.66,8.9,47.47-26.7,86.04-68.24,128.56-116.69,6.92-7.91,6.92-11.87,6.92-22.74,7.91-199.76-6.92-377.77-38.57-459.85-9.89-25.71-17.8-38.57-33.63-38.57-24.72,0-61.31,54.39-92.96,192.84h-1.98c23.73-132.52,53.4-230.42,122.63-230.42,21.76,0,42.53,10.88,56.37,53.4,35.6,105.82,42.52,257.12,37.58,437.11h1.98c103.84-139.44,149.33-266.02,149.33-345.14,0-46.48-14.83-87.03-35.6-116.69v-1.98l79.11-26.7c-13.84,220.53-73.18,357-201.74,521.17-94.94,120.65-178.01,197.79-267.01,197.79-6.92,0-13.84-.99-18.79-2.97Z" style="fill:#fff;"/></svg>