<svg preserveAspectRatio="xMidYMid meet" viewBox="2.28 -625.99 2259.74 662.53" xmlns="http://www.w3.org/2000/svg"><g fill="#005679" transform="scale(1 -1)"><path d="m48.89978027 0q-2.4500122 0-2.4500122 6 0 6 2.4500122 6 36.49987793 0 48.32485962 13.67501831 11.82498169 13.67501831 11.82498169 55.32498169v184.49987793q0 34.64996338-6.77499389 50.69995117-6.7749939 16.04998779-24.87496949 16.04998779-8.09997558 0-18.69995117-3.27499389-10.59997558-3.2749939-24.34991455-9.92495728-4-1-6.5 4.72500611-2.5 5.7250061 1.04998779 7.27499389l136.15032959 63.40014649q2.5499878 1 3.5499878 1 3.35003662 0 6.97506713-3.35003662 3.62503052-3.35003663 3.62503052-6.80004883 0-9.25006104-1-39.17501831-1-29.92495728-1-79.17501831v-185.94989014q0-41.64996338 11.5-55.32498169 11.5-13.67501831 48.54986573-13.67501831 3 0 3-6 0-6-3-6-18.35003663 0-42.70007325 1-24.35003662 1-51.70007324 1-26.35003662 0-50.70007324-1-24.35003662-1-43.25006104-1zm87.75018311 506.54974365q-23.05010986 0-36.25018311 12.70007324-13.20007324 12.70007325-13.20007324 35.65020752 0 21.60009766 13.20007324 34.0751648 13.20007325 12.47506714 36.25018311 12.47506714 22.50012207 0 34.7501831-12.47506714 12.25006104-12.47506714 12.25006104-34.0751648 0-48.35028076-47.00024414-48.35028076z"></path><path d="m311.84991455 0q-3 0-3 6 0 6 3 6 36.49987793 0 48.04986572 13.67501831 11.5499878 13.67501831 11.5499878 55.32498169v156.64971924q0 57.84991455-21.42495728 84.94989014-21.42495727 27.09997558-67.27487183 27.09997558-34.39990234 0-70.29980468-20.49987793-35.89990235-20.49987793-60.39978028-56.3996582l-4.4500122 12q41.59985351 56.59985351 85.04986572 85.17489624 43.45001221 28.57504272 91.05010986 28.57504272 55.45001221 0 85.67501831-31.97506714 30.22500611-31.97506713 30.22500611-90.82498169v-194.74993896q0-41.64996338 11.5-55.32498169 11.5-13.67501831 48.54986572-13.67501831 3 0 3-6 0-6-3-6-18.35003662 0-42.70007324 1-24.35003662 1-51.15008545 1-26.35003662 0-50.97506714-1-24.62503052-1-42.97506714-1zm-269 0q-3 0-3 6 0 6 3 6 36.49987793 0 48.04986572 13.67501831 11.5499878 13.67501831 11.5499878 55.32498169v194.59985352q0 32.64996337-7.5499878 47.69995117-7.54998779 15.04998779-26.19995117 15.04998779-9.54998779 0-22.64996338-3.7749939-13.09997558-3.77499389-29.74993896-10.77499389-4-1.45001221-6.2749939 4-2.2749939 5.4500122.82498169 7l123.6003418 59.20019531q3.80004883 1.45001221 5.90002441 1.45001221 8.80004883 0 19.52505493-22.07504273 10.72500611-22.07504272 10.72500611-63.77511596v-228.59985352q0-41.64996338 11.5-55.32498169 11.5-13.67501831 48.54986572-13.67501831 3 0 3-6 0-6-3-6-18.35003662 0-42.70007324 1-24.35003662 1-51.15008545 1-26.35003662 0-50.97506714-1-24.62503052-1-42.97506714-1z" transform="translate(250)"></path><path d="m231.80004883-12q-68.45001221 0-112.07504273 29.5-43.62503051 29.5-64.30004882 75.2250061-20.67501832 45.72500611-20.67501832 92.72500611 0 50 19.90002442 89 19.90002441 39 52.75006103 65.77499389 32.85003663 26.7749939 72.65008545 40.7749939 39.80004883 14 78.60009766 14 28.45001221 0 55.80004883-7.95001221 27.35003662-7.9500122 45.25006103-22.52505493 17.90002442-14.57504272 17.90002442-34.62515259 0-14.25006103-10.42507935-25.45013427-10.42507934-11.20007325-30.27523804-11.20007325-18.95013427 0-30.7501831 10.80004883-11.80004883 10.80004883-18.70007324 27.55023194-9.74993897 20.15008544-22.64984131 31.55010986-12.89990235 11.40002441-41.29980469 11.40002441-52.89978027 0-81.97470093-43.82498169-29.07492065-43.82498169-29.07492065-114.47494506 0-50.5499878 16.64996338-93.69995118 16.64996338-43.14996338 52.57492065-69.29992675 35.92495728-26.14996338 94.57492066-26.14996338 27.80004882 0 52.14996337 7.27499389 24.34991456 7.2749939 47.69995118 23.67489624 2.54998779 2 6.04998779-2 3.5-4 .95001221-6-34.45001221-31.4500122-70.35003662-46.75006103-35.90002442-15.30004883-80.95013428-15.30004883z" transform="translate(750)"></path><path d="m315.70007324-6q-4-2-8.90002441-2-14.70007324 0-28.3001709 22.35003662-13.60009766 22.35003662-13.60009766 64.60009766v182.64971924q0 62.4500122-15.22488403 88.92507934-15.22488403 26.47506714-42.87484741 26.47506714-25 0-39.69995117-13.30004883-14.69995118-13.30004883-21.39990235-31.20007324-6.69995117-17.90002441-9.34991455-32-2.45001221-19.45025635-11.95013428-32.50024414-9.50012207-13.04998779-31.7501831-13.04998779-19.95013428 0-29.025177 9.90002441-9.07504273 9.90002441-9.07504273 22.60009766 0 20.15008545 19.57504273 39.45013427 19.57504272 19.30004883 49.55010986 34.97506714 29.97506714 15.67501831 62.45013428 24.90002442 32.47506714 9.2250061 58.37509155 9.2250061 41 0 64.50012207-26.2749939 23.50012207-26.27499389 23.50012207-78.12515258v-183.59985352q0-32.84991455 9.40002442-49.12490845 9.40002441-16.27499389 29.5-16.27499389 16.74993896 0 43.29968261 11.39990234 4.5499878 2 6.7749939-3.5 2.2250061-5.5-2.7749939-7.5zm-183.7501831-1q-40.15008545 0-60.55010987 20.04998779-20.40002441 20.0499878-20.40002441 49.75006104 0 24.20019531 12.77511597 40.87521362 12.77511596 16.67501831 37.65020752 29.64996338 24.87509155 12.97494507 59.7250061 25.62490845l113.74969482 42.49987793 2.90002442-13.90002442-90.54925537-36.44976806q-15.14984131-5.74993897-27.94989014-13.89990235-12.80004883-8.14996338-20.40014648-19.54998779-7.60009766-11.40002441-7.60009766-27.8001709 0-23.80004883 15.62503052-39.32498169 15.62503051-15.52493286 38.67489624-15.52493286 9.64996338 0 19.62490844 2.82498169 9.97494507 2.82498169 23.82485962 11.47494507l59.34979248 36.74993896 1.5499878-13.80004882-72.74993897-48.35003663q-23.64996338-16.4500122-43.09997558-23.67501831-19.45001221-7.2250061-42.15008545-7.2250061z" transform="translate(1145)"></path><path d="m105.90026855 329.20019531q0-24.29992676 12.59997559-41.89990234 12.59997559-17.59997559 32.52493286-30.54998779 19.92495728-12.95001221 42.02493286-25.40002442 25.5499878-12.90002441 49-27.85003662 23.45001221-14.95001221 38.90002442-35.85003662 15.4500122-20.90002441 15.4500122-54.25006104 0-32-16.2250061-60.57504272-16.2250061-28.57504272-48.40002441-46.20007324-32.17501831-17.62503052-79.42507935-17.62503052-24.45001221 0-48.35003662 6.04998779-23.90002441 6.0499878-50.15008545 23.14996338-2 2-4 5-2 3-2 7l-2 84.15032959q0 3 5.5 3.5 5.5.5 6.5-2.04998779 12.09997559-33.09997559 30.7250061-57.30004883 18.62503052-24.20007324 42.20007325-37.12515259 23.57504272-12.92507934 50.12503051-12.92507934 28.2498169 0 44.27474976 14.69995117 16.02493286 14.69995117 14.92495728 44.54986572-.5499878 28.54998779-13.87496949 46.7749939-13.32498169 18.2250061-33.42495727 30.90002441-20.09997559 12.67501831-41.74993897 23.67501831-24.09997558 12.45001221-46.82498169 26.17501831-22.7250061 13.72500611-37.4500122 34.95001221-14.72500611 21.2250061-14.72500611 55.12503052 0 39.80004883 20.45001221 64.52505493 20.45001221 24.7250061 52.30004883 36.2749939 31.85003662 11.54998779 66.20007324 11.54998779 19.80004883 0 38.02505493-3.2749939 18.22500611-3.27499389 38.37509155-11.7250061 9-3.54998779 9-11 0-17.25006104-1-36.27511597-1-19.02505493-1-41.72512817 0-2.45001221-6-2.45001221-6 0-6 2.45001221 0 21.19995117-16.04998779 40.45001221-16.04998779 19.25006103-40.2250061 31.62515258-24.17501831 12.37509156-49.87509155 12.37509156-21.14984131 0-35.7498169-10.84991455-14.59997559-10.84991456-14.59997559-38.04986573z" transform="translate(1545)"></path><path d="m224.00024414-12q-61.70007324 0-103.90014648 27.2749939-42.20007325 27.27499389-63.77511597 71.5-21.57504273 44.2250061-21.57504273 94.12503051 0 60.09997559 28.45001221 108.37496949 28.45001221 48.27499389 77.52505493 77 49.07504273 28.7250061 109.5751648 28.7250061 57.90002441 0 89.27511597-29.19995117 31.37509155-29.19995117 31.37509155-85.25006104 0-13-2.2749939-20.35003662-2.27499389-7.35003662-9.27499389-7.35003662h-69.05059815q3.64996338 59.74993897-15.67489624 90.95001221-19.32485962 31.20007324-59.07479858 31.20007324-48.79980469 0-76.42471314-41.82498169-27.62490845-41.82498169-27.62490845-113.12490845 0-56.90002441 18-100.27499389 18-43.37496949 53-67.74993897 35-24.37496948 85.45001221-24.37496948 32.74993897 0 54.34991455 9.14996338 21.59997559 9.14996338 44.40002442 22.14996338 2 2 5.5-2.2749939 3.5-4.2749939 1.5-7.2749939-35.90002442-33.15008544-72.75006104-47.27511596-36.85003662-14.12503052-77.00012207-14.12503052zm-135.35003662 263.84991455-1 15.15008545 223.94989014 4v-18.15008545z" transform="translate(1863)"></path></g></svg>